<?xml version="1.0"?>
<svg xmlns="http://www.w3.org/2000/svg" xmlns:xlink="http://www.w3.org/1999/xlink" version="1.1" id="Capa_1" x="0px" y="0px" viewBox="0 0 480 480" style="enable-background:new 0 0 480 480;" xml:space="preserve" width="512px" height="512px"><g><g>
	<g>
		<path d="M475.864,265.003L364,203.283V72.003c-0.002-2.912-1.586-5.593-4.136-7l-116-64c-2.403-1.336-5.325-1.336-7.728,0l-116,64    c-2.55,1.407-4.134,4.088-4.136,7v131.28L4.136,265.003c-2.55,1.407-4.134,4.088-4.136,7v136c0.002,2.912,1.586,5.593,4.136,7    l116,64c2.405,1.327,5.323,1.327,7.728,0L240,417.139l112.136,61.864c2.405,1.327,5.323,1.327,7.728,0l116-64    c2.55-1.407,4.134-4.088,4.136-7v-136C479.998,269.091,478.414,266.41,475.864,265.003z M232,403.283l-108,59.584L16,403.283    v-126.56l108-59.584l108,59.584V403.283z M132,203.283V76.723l108-59.584l108,59.584v126.56l-108,59.584L132,203.283z     M464,403.283l-108,59.584l-108-59.584v-126.56l108-59.584l108,59.584V403.283z" data-original="#000000" class="active-path" data-old_color="#ffffff" fill="#ffffff"/>
	</g>
</g><g>
	<g>
		<path d="M271.928,206.947L256.304,89.763l12-19.64c0.429-0.696,0.747-1.455,0.944-2.248c2.138-8.574-3.078-17.258-11.652-19.396    c-1.257-0.314-2.548-0.473-3.844-0.476h-27.504c-8.837-0.002-16.002,7.16-16.004,15.996c0,1.306,0.159,2.608,0.476,3.876    c0.197,0.793,0.515,1.552,0.944,2.248l12,19.64l-15.592,117.184c-0.329,2.469,0.511,4.95,2.272,6.712l24,24    c3.124,3.123,8.188,3.123,11.312,0l24-24C271.417,211.898,272.257,209.416,271.928,206.947z M253.32,64.003l-9.808,16h-7.024    l-9.808-16H253.32z M240,220.691l-15.544-15.552l14.552-109.136h1.984l14.552,109.136L240,220.691z" data-original="#000000" class="active-path" data-old_color="#ffffff" fill="#ffffff"/>
	</g>
</g><g>
	<g>
		<path d="M208,288.003h-88c-4.418,0-8,3.582-8,8v64c0,4.418,3.582,8,8,8h19.056l-10.216,20.424    c-1.975,3.952-0.372,8.757,3.58,10.732c1.112,0.555,2.337,0.844,3.58,0.844h56c4.418,0.002,8.002-3.578,8.004-7.996    c0.001-1.243-0.288-2.468-0.844-3.58l-10.216-20.424H208c4.418,0,8-3.582,8-8v-64C216,291.585,212.418,288.003,208,288.003z     M148.944,384.003l8-16h14.112l8,16H148.944z M200,352.003h-72v-48h72V352.003z" data-original="#000000" class="active-path" data-old_color="#ffffff" fill="#ffffff"/>
	</g>
</g><g>
	<g>
		<path d="M88,304.003H40c-4.418,0-8,3.582-8,8v80c0,4.418,3.582,8,8,8h48c4.418,0,8-3.582,8-8v-80    C96,307.585,92.418,304.003,88,304.003z M80,384.003H48v-64h32V384.003z" data-original="#000000" class="active-path" data-old_color="#ffffff" fill="#ffffff"/>
	</g>
</g><g>
	<g>
		<rect x="56" y="352.003" width="16" height="16" data-original="#000000" class="active-path" data-old_color="#ffffff" fill="#ffffff"/>
	</g>
</g><g>
	<g>
		<path d="M432,280.003h-40v-8c0-13.255-10.745-24-24-24h-24c-13.255,0-24,10.745-24,24v8h-40c-4.418,0-8,3.582-8,8v104    c0,4.418,3.582,8,8,8h152c4.418,0,8-3.582,8-8v-104C440,283.585,436.418,280.003,432,280.003z M336,272.003c0-4.418,3.582-8,8-8    h24c4.418,0,8,3.582,8,8v8h-40V272.003z M424,384.003H288v-48h40v24c0,4.418,3.582,8,8,8h40c4.418,0,8-3.582,8-8v-24h40V384.003z     M344,352.003v-16h24v16H344z M424,320.003H288v-24h136V320.003z" data-original="#000000" class="active-path" data-old_color="#ffffff" fill="#ffffff"/>
	</g>
</g></g> </svg>
