<svg id="logo" viewBox="0 0 79.6 70" width="100%" height="100%">
			<path d="M49.4 14.2h2.5c.2 0 .6-.2.6-.6 0-.2-.2-.6-.6-.6h-2.5c-.2 0-.6.2-.6.6.2.4.4.6.6.6zM49.4 16h2.5c.2 0 .6-.2.6-.6 0-.2-.2-.6-.6-.6h-2.5c-.2 0-.6.2-.6.6.2.4.4.6.6.6zM49.4 17.7h2.5c.2 0 .6-.2.6-.6 0-.2-.2-.6-.6-.6h-2.5c-.2 0-.6.2-.6.6.2.2.4.6.6.6zM45.4 23.5h11.2v1.2c0 .2.2.4.4.4h.2c.2 0 .2 0 .4-.2l.6-.6.6.6c0 .1.2.1.4.1s.4-.2.4-.4v-1.2h2.9c.2 0 .6-.2.6-.6v-10c0-.2-.2-.6-.6-.6h-1.2v-1.9c0-.2-.2-.6-.6-.6h-5c-.6 0-1.3.4-1.7.8-.4-.6-1-.8-1.7-.8h-5c-.2 0-.6.2-.6.6v1.9h-1.2c-.2 0-.6.2-.6.6v10c-.1.3.3.7.5.7zm8.8-1c.2-.4.6-.8 1.2-.8h1.2v.8h-2.4zm3.9 1s-.2-.2-.4-.2-.2 0-.4.2v-1.7h.8v1.7zm3.2-10v9h-2.3v-.8h1.2c.2 0 .6-.2.6-.6v-7.7h.5zm-13.8-2.5h4.4c.6 0 1.2.6 1.2 1.2 0 .2.2.6.6.6.2 0 .6-.2.6-.6 0-.6.6-1.2 1.2-1.2h4.4v9.8h-4.4c-.6 0-1.3.4-1.7.8-.4-.6-1-.8-1.7-.8h-4.4v-9.8zm-1.7 2.5h.8v7.7c0 .2.2.6.6.6h4.8c.4 0 1 .2 1.2.8h-7.2v-9h-.2zM34.2 47.1c-.2-.4-.4-.4-.8-.2l-1.7 1h-1.2s-.4-.2-.6-.2c-.8-.4-1.2-.6-1.5-.6s-.8.2-1.2.4c-1.5.4-3.1.2-3.7.2-.2-.2-1.9-1.2-1.9-1.2h-.4c-.2 0-.2.2-.4.4l-2.1 5.8v.4c0 .2.2.2.2.2s2.1.7 2.3.7.2 0 .4-.2l.4.2v.4c0 .4.2.6.4.8.2.2.4.4.8.4 0 .2.2.4.4.6.2.2.8.4 1.2.4.2.4 1 .8 1.3.6.2.4 1 .8 1.5.4l.2.2c.2.2.6.4 1 .4s.6-.2 1-.4c.2-.2.2-.2.2-.4h.4c.4 0 .6-.2 1-.4 0 0 .2-.2.2-.4h.4c.4 0 .6-.2 1-.4.2-.2.2-.2.2-.4h.2c.4 0 .6-.2 1-.4.4-.4.4-1.2 0-1.7h.2c0 .2.2.2.4.2s1.9-.6 2.1-.8c.4-.2.4-.4.2-.6l-3.1-5.4zm-12.9.4s1 .6 1.2.8c-.2.8-.8 2.9-1.7 4.4l-1.2-.4 1.7-4.8zm5 8.8s-.2-.2 0-.2c0-.2 0-.4-.2-.6h-.6l-.2.2h-.2v-.2c.2-.2.2-.6 0-.6-.2-.2-.4-.2-.6 0l-.2.2h-.2v-.1c.2-.2.2-.4 0-.6s-.6-.2-.8 0h-.2v-.2l.6-.6h.3c.2.2.4.2.6 0 0 0 0 .2.2.2.2.2.6.2.8 0h.2s.2 0 .2.2c-.2.2-.2.6 0 .6.2.2.6.2.8 0h.2v.2c0 .2 0 .4.2.6s.4.2.6 0h.4v.4l-.8.8c-.9-.3-1.1-.1-1.1-.3zm2 .6c-.2.2-.2.2-.4 0l-.2-.2.4-.4.2.2c.2.2.2.2 0 .4zm4.4-2.1c-.2.2-.2.2-.4 0l-2.1-2.1c-.2-.2-.6-.2-.8 0-.2.2-.2.6 0 .8l1.9 1.9s.2.2 0 .4h-.4l-2.1-2.3c-.2-.2-.6-.2-.8 0-.2.2-.2.6 0 .8l1.7 1.7c.2.2 0 .4 0 .4h-.4l-1-1c0-.2-.2-.4-.4-.6-.2-.2-.6-.4-.8-.4 0-.2-.2-.4-.4-.6-.2-.2-.6-.4-1-.4 0-.2 0-.4-.2-.4-.4-.4-1.2-.4-1.5 0 0 0 0-.2-.2-.2-.4-.4-1.2-.4-1.7 0l-.4.4-.4-.2c1-1.7 1.5-3.5 1.7-4.2.4 0 1.9.2 1.9.2.1.2.1 1 .1 1s-.6 1-.8 1.2c0 .4 0 .6.4 1 .2.2.6.4 1 .4s.6 0 1-.4c.8-.4 1-1 1.2-1.3h.6l4.2 4.2c.1-.5.1-.3.1-.3zm0-1.5l-3.7-3.7s-.2-.2-.4-.2h-1.3c-.2 0-.4.2-.4.6 0 0 0 .6-.6 1-.4.2-.8.2-.8.2.2-.2.6-.8.6-1 .2-.2.2-.6.2-1 1.5-1.2 2.1-1.2 2.1-1.2.2 0 .8.4 1.2.4.4.2.6.4.8.4h1.2c.2.8.6 2.5 1.5 4.2l-.4.3zm1.5-.2c-1.2-1.7-1.5-3.7-1.7-4.4l1.2-.6 1.7 4.6c-.6 0-1 .2-1.2.4zM18.3 12.9c.4 0 1.3-.6 2.1-.6v10.6c0 .2 0 .4.2.4s.4.2.4 0l4-1.5 4 1.5h.4c.2 0 .2-.2.2-.4v-10.6c2.7.4 4.4 1.7 5 2.1 0 0 .2.2.4.2s.2 0 .4-.2c0 0 1-1.2 1-2.9s-1-2.7-1-2.9-.2-.1-.4-.1-.2 0-.4.2c-.8.8-3.3 2.3-7.1 2.3h-5.8c-.8 0-3.1-.8-3.3-.8-.8.2-1.5.4-1.5 1.3s.6 1.4 1.4 1.4zm2.9 5.8l7.3-3.1v.6l-7.3 3.1v-.6zm7.5-4.3l-7.5 3.1v-4.4c.8.8 1.9 1.3 3.7 1.3 1.7 0 2.9-.8 3.7-1.3l.1 1.3zm-3.5 6.4h-.4l-3.7 1.3v-1.7l7.5-3.1v4.8l-3.4-1.3zm9.6-11c.2.4.4 1 .4 1.7s-.2 1.3-.4 1.7c-.8-.4-2.1-1.2-3.7-1.7 1.6-.3 2.9-1.1 3.7-1.7zm-6.5 2.3c-.6.6-1.5 1.5-3.3 1.5-1.7 0-2.9-1-3.5-1.5h6.8zm-10.2-.8l.8.2c-.2.2-.6.4-.8.4-.2 0-.2-.2-.2-.4 0 0 0-.2.2-.2zM52.1 54.6h.4M52.3 54.2v.4"></path>
			<path d="M14.2 27.5v-20c9.1-2.5 16.8-3.7 23.9-3.8v23.8h1v-23.8h1.8v24h1v-24c6.9.1 14.4 1.3 23.7 3.8v20h1v-20.4c0-.2-.2-.4-.4-.4-10.4-2.9-18.5-4.2-26.4-4.2-7.7 0-16.2 1.3-26.3 4.2-.2 0-.4.2-.4.4v20.4h1.1zM65.4 42.5c0 13.3-10.4 23.1-23.8 23.8v-23.8h-1v24h-1.8v-24h-1v23.8c-13.4-.9-23.8-10.7-23.8-23.8h-.8c.2 14.2 11.7 25 26.7 25 14.8 0 26.3-10.6 26.5-25h-1zM75.2 37.3l4.4-8.1h-7.5v-2.1h-3.1v-22.5c0-.2-.2-.4-.4-.4-9.9-2.9-19.6-4.2-28.8-4.2s-19 1.3-28.8 4c-.2 0-.4.2-.4.4v22.5h-3.1v2.1h-7.5l4.4 8.1-4.4 8.1h10.8c1.5 14.2 13.6 24.8 29 24.8s27.5-10.8 29-24.8h10.8l-4.4-7.9zm-63.7-32.5c9.6-2.7 19.2-4 28.3-4s18.5 1.3 28.1 4v22.1h-56.4v-22.1zm-3 23.3h62.7v14h-62.7v-14zm-7 16.1l3.8-7.1-3.8-7.1h5.8v12.9h3.1v1.2h-8.9v.1zm38.3 24.8c-15.6 0-27.9-11.3-28.3-26h56.3c-.1 14.7-12.4 26-28 26zm29.2-25.9h3.1v-12.9h5.8l-3.9 7.1 3.8 7.1h-9c0-.6 0-.9.2-1.3zM48.8 30.6h6v2.3h-.8c-.2-.6-.2-1-.2-1.3h-2.8v3.1h2.7v1h-2.7v3.3h3c0-.6.2-1 .4-1.3h.8v2.3h-6.3v-1c.2-.2.6-.4 1-.4v-6.9c-.2 0-.8-.2-1-.4l-.1-.7zm-9.6 0h3.1v.8c-.2.2-.6.4-1 .4v2.9h1.3l2.1-3.1-1 .2v-1h3.1v.8c-.4.2-1 .4-1 .4l-2.3 3.5 2.5 3.5h1v.8c-.3.2-.7.2-1 .2-.8 0-1-.4-1.3-1l-1.9-3.3h-1.3v3.3c.2-.2.8-.2 1-.2v1h-3.1v-.8c.2-.2.6-.4 1-.4v-7.1c-.2.2-.8.2-1 .2v-1.1h-.2zm-4 1.1v7.1c.4-.2.8-.2 1-.2v1h-3.1v-.8c.2-.2.6-.4 1-.4v-7.1c-.2.2-.8.2-1 .2v-1h3.1v.8c-.4.2-.8.2-1 .4m-9.8 7v-7.1c-.2.2-.8.2-1 .2v-1h3.1v.8c-.2.2-.6.4-1 .4v7h2.7c0-.6 0-1 .4-1.5h.8v2.5h-6v-.8c.2-.4.6-.5 1-.5"></path>
			<path d="M68.1 25.4h1v.8h-1z"></path>
			<circle cx="48.3" cy="51.9" r="1"></circle>
			<circle cx="53.3" cy="47.1" r="1"></circle>
			<circle cx="56" cy="51.5" r=".4"></circle>
			<circle cx="46.2" cy="55.2" r=".4"></circle>
			<circle cx="53.1" cy="57.5" r=".4"></circle>
			<circle cx="49.4" cy="59.4" r="1.2"></circle>
			<circle cx="57.3" cy="56.2" r=".8"></circle>
			<path d="M52.5 55.8c-1.2 0-2.1-1-2.1-2.1s1-2.1 2.1-2.1 2.1 1 2.1 2.1-.9 2.1-2.1 2.1zm0-3.5c-.8 0-1.3.6-1.3 1.3s.6 1.3 1.3 1.3 1.3-.6 1.3-1.3-.5-1.3-1.3-1.3zM48.882 58.901l2.243-4.016.698.39-2.243 4.016zM57.5 56.9l-3.8-2.5.3-.6 3.9 2.5zM47.886 52.606l.225-.768 2.783.815-.225.768zM53.1 52.1l-.8-.2.6-5h.8zM53.735 52.791l2.242-1.504.446.664-2.242 1.504zM52.7 57.7l-.2-2.3.8-.2.2 2.3zM45.963 54.875l4.502-.945.164.783-4.502.945z"></path>
	</svg>